<svg xmlns="http://www.w3.org/2000/svg" width="50" height="43" viewBox="0 0 50 43">
  <metadata><?xpacket begin="﻿" id="W5M0MpCehiHzreSzNTczkc9d"?>
<x:xmpmeta xmlns:x="adobe:ns:meta/" x:xmptk="Adobe XMP Core 5.6-c142 79.160924, 2017/07/13-01:06:39        ">
   <rdf:RDF xmlns:rdf="http://www.w3.org/1999/02/22-rdf-syntax-ns#">
      <rdf:Description rdf:about=""/>
   </rdf:RDF>
</x:xmpmeta>
                                                                                                    
                                                                                                    
                                                                                                    
                                                                                                    
                                                                                                    
                                                                                                    
                                                                                                    
                                                                                                    
                                                                                                    
                                                                                                    
                                                                                                    
                                                                                                    
                                                                                                    
                                                                                                    
                                                                                                    
                                                                                                    
                                                                                                    
                                                                                                    
                                                                                                    
                                                                                                    
                           
<?xpacket end="w"?></metadata>
<defs>
    <style>
      .cls-1 {
        fill: #737373;
        fill-rule: evenodd;
      }
    </style>
  </defs>
  <path id="icon" class="cls-1" d="M1024.57,964h42.86a3.577,3.577,0,0,1,3.57,3.583v35.837a3.574,3.574,0,0,1-3.57,3.58h-42.86a3.574,3.574,0,0,1-3.57-3.58V967.583A3.577,3.577,0,0,1,1024.57,964Zm0.43,9h42v30h-42V973Zm17-6h25v3h-25v-3Zm-14.75-.313a1.792,1.792,0,1,1-1.79,1.792A1.781,1.781,0,0,1,1027.25,966.687Zm5.36,0a1.792,1.792,0,1,1-1.79,1.792A1.788,1.788,0,0,1,1032.61,966.687Zm5.47,0a1.792,1.792,0,1,1-1.79,1.792A1.788,1.788,0,0,1,1038.08,966.687Z" transform="translate(-1021 -964)"/>
</svg>
