<svg xmlns="http://www.w3.org/2000/svg" width="50" height="42" viewBox="0 0 50 42">
  <metadata><?xpacket begin="﻿" id="W5M0MpCehiHzreSzNTczkc9d"?>
<x:xmpmeta xmlns:x="adobe:ns:meta/" x:xmptk="Adobe XMP Core 5.6-c142 79.160924, 2017/07/13-01:06:39        ">
   <rdf:RDF xmlns:rdf="http://www.w3.org/1999/02/22-rdf-syntax-ns#">
      <rdf:Description rdf:about=""/>
   </rdf:RDF>
</x:xmpmeta>
                                                                                                    
                                                                                                    
                                                                                                    
                                                                                                    
                                                                                                    
                                                                                                    
                                                                                                    
                                                                                                    
                                                                                                    
                                                                                                    
                                                                                                    
                                                                                                    
                                                                                                    
                                                                                                    
                                                                                                    
                                                                                                    
                                                                                                    
                                                                                                    
                                                                                                    
                                                                                                    
                           
<?xpacket end="w"?></metadata>
<defs>
    <style>
      .cls-1 {
        fill: #423e3e;
        fill-rule: evenodd;
      }
    </style>
  </defs>
  <path id="icon" class="cls-1" d="M567.448,974.25H570.9V969l13.793,0.109-0.006,5.171,25.868-.03a3.474,3.474,0,0,1,3.448,3.5v29.75a3.476,3.476,0,0,1-3.448,3.5h-43.1a3.477,3.477,0,0,1-3.449-3.5V977.75A3.475,3.475,0,0,1,567.448,974.25Zm6.9-1.75h6.9v5.25h-6.9V972.5Zm31.9,6.161a3.5,3.5,0,1,1-3.449,3.5A3.474,3.474,0,0,1,606.241,978.661Zm-23.276,2.516a12.253,12.253,0,1,1-12.069,12.25A12.161,12.161,0,0,1,582.965,981.177Zm0,4.667a7.874,7.874,0,1,1-7.759,7.875A7.817,7.817,0,0,1,582.966,985.844Z" transform="translate(-564 -969)"/>
</svg>
